<?xml version="1.0" encoding="UTF-8"?>
<svg xmlns="http://www.w3.org/2000/svg" xmlns:xlink="http://www.w3.org/1999/xlink" width="1510mm" height="480mm" viewBox="1495 -5 1510 480" role="img" aria-labelledby="title desc">
<title id="title">최강피자 창고 벽면 스티커</title>
<desc id="desc">최강피자 브랜드 슬로건과 가맹 문의 정보를 담은 2연판 창고 벽면 스티커 디자인</desc>
<g id="background">
<rect x="-40" y="-40" width="3080" height="550" fill="#08215D" />
<path d="M-40 188 L1020 -40 L1680 -40 L640 282 L-40 282 Z" fill="#0D2E77" opacity="0.32" />
<ellipse cx="640" cy="285" rx="840" ry="255" fill="#0D2E77" opacity="0.34" />
<ellipse cx="1185" cy="88" rx="160" ry="108" fill="#FFCF00" opacity="0.06" />
<ellipse cx="2495" cy="205" rx="460" ry="215" fill="#0D2E77" opacity="0.55" />
<ellipse cx="2758" cy="334" rx="188" ry="34" fill="#02102F" opacity="0.28" />
<path d="M1600 336H3040V510H1515L1600 336Z" fill="#FFCF00" />
<line x1="1648" y1="336" x2="3030" y2="336" stroke="#FFFFFF" stroke-width="3" opacity="0.55" />
</g>
<g id="left-panel">
<rect x="106" y="61" width="10" height="10" fill="#FFCF00" opacity="1" transform="rotate(45 111 66)" />
<rect x="139" y="61" width="10" height="10" fill="#FFCF00" opacity="0.94" transform="rotate(45 144 66)" />
<rect x="172" y="61" width="10" height="10" fill="#FFCF00" opacity="0.88" transform="rotate(45 177 66)" />
<rect x="205" y="61" width="10" height="10" fill="#FFCF00" opacity="0.82" transform="rotate(45 210 66)" />
<g id="brand-mark" transform="translate(110 50) scale(1.2)" fill="none" xmlns="http://www.w3.org/2000/svg"><circle cx="7.5" cy="6.5" r="2.75" fill="#FFCF00" /><circle cx="20" cy="3.75" r="3.25" fill="#FFCF00" /><circle cx="32.5" cy="6.5" r="2.75" fill="#FFCF00" /><path d="M6.4 11.4 9.6 31.6 19.9 17.8 30.5 31.6 33.6 11.4" stroke="#FFCF00" stroke-width="3.2" stroke-linecap="round" stroke-linejoin="round" /><path d="M9.7 31.6 20 22.2 30.3 31.6" stroke="#FFCF00" stroke-width="3.2" stroke-linecap="round" stroke-linejoin="round" /></g>
<path id="brand-name" d="M810 634L488 634L488 382C328 377 176 376 48 376L84 122C400 122 830 126 1230 204L1206 438C1079 419 945 406 810 398ZM1158 1448L810 1448L810 1632L488 1632L488 1448L140 1448L140 1194L478 1194C458 1041 352 888 74 822L222 580C434 630 570 740 650 882C732 747 872 641 1080 592L1224 838C946 900 837 1050 818 1194L1158 1194ZM1618 1652L1300 1652L1300 -204L1618 -204ZM1522 1652L1200 1652L1200 600L1522 600L1522 986L1752 986L1752 1244L1522 1244ZM1000 1538L112 1538L112 1284L648 1284C602 1069 400 889 20 794L146 536C706 686 1000 1030 1000 1538ZM904 578C526 578 264 424 266 188C264 -54 526 -204 904 -204C1286 -204 1540 -54 1542 188C1540 424 1286 578 904 578ZM904 330C1110 332 1224 284 1224 188C1224 92 1110 42 904 44C698 42 584 92 584 188C584 284 698 332 904 330ZM1612 1652L1286 1652L1286 -198L1612 -198ZM1128 1498L88 1498L88 1244L224 1244L224 464L38 462L66 206C402 206 818 214 1206 280L1188 518C1125 510 1060 504 994 498L994 1244L1128 1244ZM532 472L532 1244L682 1244L682 478ZM762 1188L762 1220L1106 1220L1106 1480L70 1480L70 1220L436 1220L436 1188C436 888 326 550 -8 396L176 144C387 239 525 424 606 648C685 447 819 280 1020 192L1196 442C868 590 760 914 762 1188ZM1518 1652L1196 1652L1196 -198L1518 -198L1518 706L1768 706L1768 972L1518 972Z" fill="#FFFFFF" />
<line x1="110" y1="120" x2="720" y2="120" stroke="#FFCF00" stroke-width="3" stroke-linecap="round" opacity="0.7" />
<path id="headline-line-1" d="M1732 262L1038 262L1038 660L718 660L718 262L42 262L42 8L1732 8ZM1048 1432L1048 1556L702 1556L702 1432C702 1202 546 914 66 842L200 576C536 632 755 794 876 1002C994 793 1215 634 1556 576L1690 842C1202 914 1046 1196 1048 1432ZM1548 1652L1224 1652L1224 -198L1548 -198L1548 658L1756 658L1756 922L1548 922ZM22 342L60 84C364 84 780 84 1168 160L1146 390C1024 374 894 363 764 356L764 476C948 520 1070 645 1070 808C1070 1014 874 1158 606 1158C332 1158 140 1014 140 808C140 646 258 521 442 476L442 344C290 342 146 342 22 342ZM1144 1458L764 1458L764 1636L442 1636L442 1458L58 1458L58 1208L1144 1208ZM606 918C700 916 762 882 762 808C762 730 700 698 606 698C508 698 444 730 446 808C444 882 508 916 606 918ZM1518 1652L1196 1652L1196 -194L1518 -194L1518 708L1754 708L1754 970L1518 970ZM1014 1468L118 1468L118 1208L688 1208C632 817 414 558 2 350L184 106C816 416 1012 896 1014 1468Z" fill="#FFFFFF" />
<path id="headline-line-2" d="M1094 1576L80 1576L80 1328L420 1328C389 1164 273 1001 -4 926L152 676C373 733 515 858 598 1018C680 877 818 766 1022 714L1170 960C908 1031 795 1178 764 1328L1094 1328ZM1522 1652L1200 1652L1200 706L1522 706L1522 1054L1752 1054L1752 1310L1522 1310ZM1522 644L266 644L266 406L1202 406L1202 348L266 348L266 -180L1566 -180L1566 60L584 60L584 126L1522 126ZM1140 930L478 930L478 1242L1132 1242L1132 1494L158 1494L158 674L490 674L490 400C336 398 186 398 48 400L84 140C428 142 830 142 1230 204L1206 436C1079 423 946 414 812 410L812 674L1140 674ZM1618 1652L1300 1652L1300 -204L1618 -204ZM1548 1182L560 1182L560 1586L240 1586L240 934L1548 934ZM1730 770L42 770L42 522L1730 522ZM1560 94L542 94L542 394L218 394L218 -162L1560 -162Z" fill="#FFCF00" />
<path id="headline-line-3" d="M988 1530L82 1530L82 656L988 656ZM400 1278L672 1278L672 906L400 906ZM1522 1652L1200 1652L1200 434L1522 434L1522 952L1752 952L1752 1218L1522 1218ZM1068 478L1068 520L750 520L750 478C748 314 624 110 192 58L314 -190C607 -150 801 -37 912 114C1022 -37 1217 -150 1510 -190L1632 58C1194 110 1068 314 1068 478ZM746 498L746 538L432 538L432 498C432 318 352 142 104 60L260 -170C423 -115 530 -14 596 114C657 -19 763 -129 932 -188C1093 -128 1198 -15 1260 120C1324 -13 1433 -115 1604 -170L1758 60C1506 134 1428 304 1428 498L1428 538L1114 538L1114 498C1112 365 1059 223 926 120C794 219 746 360 746 498ZM1602 1648L1280 1648L1280 612L1602 612ZM580 1564C286 1564 60 1376 62 1110C60 852 286 662 580 662C872 662 1098 852 1098 1110C1098 1376 872 1564 580 1564ZM580 1296C696 1296 780 1234 780 1110C780 992 696 926 580 928C458 926 374 992 374 1110C374 1234 458 1296 580 1296ZM1548 1182L560 1182L560 1586L240 1586L240 934L1548 934ZM1730 770L42 770L42 522L1730 522ZM1560 94L542 94L542 394L218 394L218 -162L1560 -162ZM1612 1652L1286 1652L1286 -198L1612 -198ZM1128 1498L88 1498L88 1244L224 1244L224 464L38 462L66 206C402 206 818 214 1206 280L1188 518C1125 510 1060 504 994 498L994 1244L1128 1244ZM532 472L532 1244L682 1244L682 478ZM762 1188L762 1220L1106 1220L1106 1480L70 1480L70 1220L436 1220L436 1188C436 888 326 550 -8 396L176 144C387 239 525 424 606 648C685 447 819 280 1020 192L1196 442C868 590 760 914 762 1188ZM1518 1652L1196 1652L1196 -198L1518 -198L1518 706L1768 706L1768 972L1518 972Z" fill="#FFFFFF" />
</g>
<g id="badge">
<circle cx="2340" cy="128" r="64" fill="#EF4136" />
<circle cx="2340" cy="128" r="56" fill="none" stroke="#FFFFFF" stroke-width="4" stroke-dasharray="10 8" opacity="0.92" />
<rect x="2336.5" y="76.5" width="7" height="7" fill="#FFFFFF" opacity="0.96" transform="rotate(45 2340 80)" />
<path d="M908 1034L1196 1034C1192 1290 980 1468 660 1468C344 1468 112 1294 112 1030C112 818 262 696 506 636L664 598C822 558 912 512 912 414C912 306 810 232 652 232C492 232 376 306 366 452L74 452C82 142 306 -20 656 -20C1008 -20 1216 148 1216 414C1216 656 1030 782 782 838L652 870C528 898 418 946 420 1050C422 1146 506 1216 658 1216C804 1216 896 1148 908 1034ZM422 1448L122 1448L122 0L422 0ZM1330 1448L1032 1448L1032 528L1018 528L386 1448L122 1448L122 0L422 0L422 920L434 920L1070 0L1330 0ZM1090 944L1394 944C1354 1276 1102 1468 768 1468C386 1468 94 1196 94 724C94 252 380 -20 768 -20C1136 -20 1360 224 1394 492L1090 494C1060 338 938 246 772 246C550 246 400 412 400 724C400 1028 548 1202 774 1202C942 1202 1066 1104 1090 944ZM122 0L1096 0L1096 248L422 248L422 600L1044 600L1044 848L422 848L422 1200L1094 1200L1094 1448L122 1448Z" fill="#FFFFFF" />
<path d="M98 0L1200 0L1200 306L628 306L628 314L774 440C1100 714 1184 856 1184 1024C1184 1292 964 1468 622 1468C290 1468 72 1282 72 980L434 980C434 1104 510 1174 622 1174C734 1174 814 1104 814 992C814 888 746 820 636 726L98 274ZM720 -20C1110 -20 1352 248 1352 724C1352 1198 1110 1468 720 1468C330 1468 88 1200 88 724C88 250 330 -20 720 -20ZM720 286C580 288 482 416 482 724C484 1024 580 1162 720 1162C860 1162 958 1024 958 724C958 416 860 288 720 286ZM798 1448L446 1448L88 1230L88 904L408 1096L416 1096L416 0L798 0ZM720 -20C1110 -20 1352 248 1352 724C1352 1198 1110 1468 720 1468C330 1468 88 1200 88 724C88 250 330 -20 720 -20ZM720 286C580 288 482 416 482 724C484 1024 580 1162 720 1162C860 1162 958 1024 958 724C958 416 860 288 720 286Z" fill="#FFFFFF" />
</g>
<g id="pizza">
<image x="2462" y="-28" width="540" height="543" href="./warehouse-sticker-pizza-source.png" xlink:href="./warehouse-sticker-pizza-source.png" preserveAspectRatio="xMidYMid meet" />
</g>
<g id="contact">
<line x1="2280" y1="399" x2="2860" y2="399" stroke="#041544" stroke-width="3" stroke-linecap="round" opacity="0.24" />
<path id="franchise-label" d="M1490 1636L1234 1636L1234 -180L1490 -180L1490 728L1748 728L1748 938L1490 938ZM1004 1450L138 1450L138 1242L744 1242C696 836 465 546 34 330L178 134C790 434 1002 906 1004 1450ZM1618 1634L1376 1634L1376 1198L1224 1198L1224 1602L986 1602L986 598L1224 598L1224 990L1376 990L1376 542L1618 542ZM842 1480L118 1480L118 674L842 674ZM358 1284L604 1284L604 864L358 864ZM996 510C610 510 366 380 366 166C366 -52 610 -184 996 -184C1380 -184 1626 -52 1628 166C1626 380 1380 510 996 510ZM996 316C1232 314 1370 264 1370 166C1370 62 1232 10 996 10C758 10 620 62 622 166C620 264 758 314 996 316ZM1718 736L52 736L52 534L780 534L780 220L1032 220L1032 534L1718 534ZM1504 1556L260 1556L260 886L1504 886ZM510 1358L1254 1358L1254 1084L510 1084ZM1534 52L502 52L502 378L248 378L248 -152L1534 -152ZM644 1514C356 1516 138 1328 138 1068C138 806 356 620 644 620C932 620 1148 806 1148 1068C1148 1328 932 1516 644 1514ZM644 1294C790 1294 898 1210 900 1068C898 924 788 842 644 842C500 842 390 924 392 1068C390 1210 500 1294 644 1294ZM1584 1636L1330 1636L1330 -188L1584 -188ZM62 392L92 184C410 184 842 188 1246 266L1226 450C836 396 386 390 62 392Z" fill="#EF4136" />
<path id="franchise-phone" d="M798 1448L446 1448L88 1230L88 904L408 1096L416 1096L416 0L798 0ZM684 -20C1032 -20 1286 158 1286 392C1286 572 1136 716 952 744L952 756C1112 784 1232 914 1232 1076C1232 1302 1000 1468 684 1468C368 1468 134 1302 134 1076C134 914 252 784 414 756L414 744C228 716 80 572 80 392C80 158 336 -20 684 -20ZM684 256C568 256 484 332 484 436C484 540 568 614 684 614C800 614 884 540 884 436C884 332 800 256 684 256ZM684 868C582 868 508 938 508 1032C508 1126 582 1192 684 1192C786 1192 860 1124 860 1032C860 938 786 868 684 868ZM698 -20C1038 -20 1274 186 1274 496C1274 762 1096 956 834 956C668 956 520 876 462 744L454 744C454 986 532 1144 702 1144C790 1144 862 1104 882 1020L1256 1020C1232 1266 1018 1468 702 1468C324 1468 78 1176 76 706C74 178 364 -20 698 -20ZM696 270C576 270 488 360 488 482C488 606 576 696 696 696C818 696 904 606 904 482C904 360 816 270 696 270ZM698 -20C1038 -20 1274 186 1274 496C1274 762 1096 956 834 956C668 956 520 876 462 744L454 744C454 986 532 1144 702 1144C790 1144 862 1104 882 1020L1256 1020C1232 1266 1018 1468 702 1468C324 1468 78 1176 76 706C74 178 364 -20 698 -20ZM696 270C576 270 488 360 488 482C488 606 576 696 696 696C818 696 904 606 904 482C904 360 816 270 696 270ZM808 866L132 866L132 580L808 580ZM798 1448L446 1448L88 1230L88 904L408 1096L416 1096L416 0L798 0ZM698 -20C1038 -20 1274 186 1274 496C1274 762 1096 956 834 956C668 956 520 876 462 744L454 744C454 986 532 1144 702 1144C790 1144 862 1104 882 1020L1256 1020C1232 1266 1018 1468 702 1468C324 1468 78 1176 76 706C74 178 364 -20 698 -20ZM696 270C576 270 488 360 488 482C488 606 576 696 696 696C818 696 904 606 904 482C904 360 816 270 696 270ZM98 0L1200 0L1200 306L628 306L628 314L774 440C1100 714 1184 856 1184 1024C1184 1292 964 1468 622 1468C290 1468 72 1282 72 980L434 980C434 1104 510 1174 622 1174C734 1174 814 1104 814 992C814 888 746 820 636 726L98 274ZM660 -20C1012 -20 1258 160 1258 414C1258 592 1140 718 910 744L910 756C1080 774 1204 886 1204 1048C1204 1290 982 1468 664 1468C340 1468 108 1282 106 1020L470 1020C472 1110 552 1174 664 1174C766 1174 838 1112 836 1024C838 932 754 868 632 868L486 868L486 604L632 604C766 604 856 538 856 446C856 354 776 288 662 288C546 288 462 350 460 436L76 436C78 170 320 -20 660 -20Z" fill="#041544" />
<path id="website-url" d="M604 -22C892 -22 1072 148 1086 394L808 394C790 278 712 214 608 214C464 214 372 334 372 544C372 750 466 870 608 870C720 870 790 796 808 688L1086 688C1074 936 884 1100 604 1100C274 1100 72 872 72 540C72 208 272 -22 604 -22ZM116 0L412 0L412 348L496 442L794 0L1142 0L716 616L1120 1086L780 1086L428 670L412 670L412 1448L116 1448ZM116 -408L412 -408L412 174L420 174C462 84 552 -18 730 -18C978 -18 1170 180 1170 542C1170 914 970 1100 730 1100C548 1100 460 992 420 904L408 904L408 1086L116 1086ZM406 544C406 740 488 864 636 864C788 864 868 734 868 544C868 352 788 218 636 218C490 218 406 348 406 544ZM116 0L412 0L412 1086L116 1086ZM264 1228C352 1228 424 1296 424 1378C424 1462 352 1530 264 1530C174 1530 102 1462 102 1378C102 1296 174 1228 264 1228ZM108 0L1018 0L1018 236L498 236L498 244L1000 892L1000 1086L126 1086L126 850L644 850L644 842L108 178ZM108 0L1018 0L1018 236L498 236L498 244L1000 892L1000 1086L126 1086L126 850L644 850L644 842L108 178ZM64 304C64 88 218 -20 426 -20C588 -20 690 50 744 150L752 150L752 0L1032 0L1032 732C1032 994 808 1100 572 1100C284 1100 120 952 102 764L384 764C400 838 464 884 564 884C674 884 736 830 738 740L738 652C692 650 546 643 468 638C260 626 64 546 64 304ZM348 312C348 396 414 444 516 454C567 459 693 466 738 468L738 388C740 274 644 184 510 184C416 184 348 228 348 312ZM290 -18C378 -18 456 58 456 150C456 242 378 316 290 316C196 316 120 242 122 150C120 58 196 -18 290 -18ZM604 -22C892 -22 1072 148 1086 394L808 394C790 278 712 214 608 214C464 214 372 334 372 544C372 750 466 870 608 870C720 870 790 796 808 688L1086 688C1074 936 884 1100 604 1100C274 1100 72 872 72 540C72 208 272 -22 604 -22ZM604 -22C932 -22 1138 204 1138 540C1138 876 932 1100 604 1100C276 1100 72 876 72 540C72 204 276 -22 604 -22ZM606 208C452 208 372 350 372 540C372 732 452 874 606 874C758 874 836 732 836 540C836 350 758 208 606 208ZM290 -18C378 -18 456 58 456 150C456 242 378 316 290 316C196 316 120 242 122 150C120 58 196 -18 290 -18ZM116 0L412 0L412 348L496 442L794 0L1142 0L716 616L1120 1086L780 1086L428 670L412 670L412 1448L116 1448ZM116 0L412 0L412 618C412 750 510 844 644 844C686 844 742 836 770 828L770 1092C744 1098 706 1102 676 1102C554 1102 454 1032 414 898L402 898L402 1086L116 1086Z" fill="#041544" />
</g>
</svg>